<mxfile host="app.diagrams.net" modified="2023-05-27T19:25:28.259Z" agent="Mozilla/5.0 (Windows NT 10.0; Win64; x64) AppleWebKit/537.36 (KHTML, like Gecko) Chrome/113.0.0.0 Safari/537.36" etag="Wu7TlA2_XEwSPF9tQdvf" version="21.3.4" type="device">
  <diagram name="Page-1" id="c7558073-3199-34d8-9f00-42111426c3f3">
    <mxGraphModel dx="1050" dy="585" grid="1" gridSize="10" guides="1" tooltips="1" connect="1" arrows="1" fold="1" page="1" pageScale="1" pageWidth="826" pageHeight="1169" background="none" math="0" shadow="0">
      <root>
        <mxCell id="0" />
        <mxCell id="1" parent="0" />
        <mxCell id="dyxi0OYYjYxg8oj2448K-107" value="Digital Game Store" style="ellipse;whiteSpace=wrap;html=1;aspect=fixed;" parent="1" vertex="1">
          <mxGeometry x="348" y="400" width="130" height="130" as="geometry" />
        </mxCell>
        <mxCell id="dyxi0OYYjYxg8oj2448K-108" value="Korisnik" style="rounded=0;whiteSpace=wrap;html=1;" parent="1" vertex="1">
          <mxGeometry x="353" y="240" width="120" height="60" as="geometry" />
        </mxCell>
        <mxCell id="dyxi0OYYjYxg8oj2448K-109" value="Održavanje&lt;br&gt;platforme" style="rounded=0;whiteSpace=wrap;html=1;" parent="1" vertex="1">
          <mxGeometry x="353" y="600" width="120" height="60" as="geometry" />
        </mxCell>
        <mxCell id="dyxi0OYYjYxg8oj2448K-110" value="Administrator&lt;br&gt;/&lt;br&gt;Uređivač" style="rounded=0;whiteSpace=wrap;html=1;" parent="1" vertex="1">
          <mxGeometry x="120" y="435" width="120" height="60" as="geometry" />
        </mxCell>
        <mxCell id="dyxi0OYYjYxg8oj2448K-111" value="" style="endArrow=classic;html=1;rounded=0;entryX=0.5;entryY=0;entryDx=0;entryDy=0;exitX=0.5;exitY=1;exitDx=0;exitDy=0;" parent="1" source="dyxi0OYYjYxg8oj2448K-108" target="dyxi0OYYjYxg8oj2448K-107" edge="1">
          <mxGeometry width="50" height="50" relative="1" as="geometry">
            <mxPoint x="340" y="480" as="sourcePoint" />
            <mxPoint x="390" y="430" as="targetPoint" />
          </mxGeometry>
        </mxCell>
        <mxCell id="dyxi0OYYjYxg8oj2448K-112" value="Korisnicki podaci, pregled i kupovina igara" style="text;html=1;strokeColor=none;fillColor=none;align=center;verticalAlign=middle;whiteSpace=wrap;rounded=0;" parent="1" vertex="1">
          <mxGeometry x="413" y="340" width="60" height="30" as="geometry" />
        </mxCell>
        <mxCell id="dyxi0OYYjYxg8oj2448K-113" value="" style="endArrow=classic;html=1;rounded=0;exitX=1;exitY=0.5;exitDx=0;exitDy=0;entryX=0;entryY=0.5;entryDx=0;entryDy=0;" parent="1" source="dyxi0OYYjYxg8oj2448K-110" target="dyxi0OYYjYxg8oj2448K-107" edge="1">
          <mxGeometry width="50" height="50" relative="1" as="geometry">
            <mxPoint x="340" y="470" as="sourcePoint" />
            <mxPoint x="390" y="420" as="targetPoint" />
          </mxGeometry>
        </mxCell>
        <mxCell id="dyxi0OYYjYxg8oj2448K-115" value="Podaci o korisniku, o igrama, narudzbama" style="text;html=1;strokeColor=none;fillColor=none;align=center;verticalAlign=middle;whiteSpace=wrap;rounded=0;" parent="1" vertex="1">
          <mxGeometry x="500" y="360" width="60" height="30" as="geometry" />
        </mxCell>
        <mxCell id="dyxi0OYYjYxg8oj2448K-116" value="Uređivanje sadržaja, dodavanje novih igara" style="text;html=1;strokeColor=none;fillColor=none;align=center;verticalAlign=middle;whiteSpace=wrap;rounded=0;" parent="1" vertex="1">
          <mxGeometry x="250" y="420" width="97" height="30" as="geometry" />
        </mxCell>
        <mxCell id="dyxi0OYYjYxg8oj2448K-114" style="edgeStyle=orthogonalEdgeStyle;rounded=0;orthogonalLoop=1;jettySize=auto;html=1;entryX=1.008;entryY=0.633;entryDx=0;entryDy=0;entryPerimeter=0;" parent="1" source="dyxi0OYYjYxg8oj2448K-107" target="dyxi0OYYjYxg8oj2448K-108" edge="1">
          <mxGeometry relative="1" as="geometry">
            <mxPoint x="550" y="270" as="targetPoint" />
            <Array as="points">
              <mxPoint x="493" y="465" />
              <mxPoint x="493" y="278" />
            </Array>
          </mxGeometry>
        </mxCell>
        <mxCell id="dyxi0OYYjYxg8oj2448K-118" value="Zahtjev za održavanje&lt;br&gt;" style="text;html=1;strokeColor=none;fillColor=none;align=center;verticalAlign=middle;whiteSpace=wrap;rounded=0;" parent="1" vertex="1">
          <mxGeometry x="418" y="555" width="60" height="30" as="geometry" />
        </mxCell>
        <mxCell id="dyxi0OYYjYxg8oj2448K-119" value="" style="endArrow=classic;html=1;rounded=0;exitX=0.5;exitY=1;exitDx=0;exitDy=0;entryX=0.5;entryY=0;entryDx=0;entryDy=0;" parent="1" source="dyxi0OYYjYxg8oj2448K-107" target="dyxi0OYYjYxg8oj2448K-109" edge="1">
          <mxGeometry width="50" height="50" relative="1" as="geometry">
            <mxPoint x="340" y="400" as="sourcePoint" />
            <mxPoint x="390" y="350" as="targetPoint" />
          </mxGeometry>
        </mxCell>
        <mxCell id="dyxi0OYYjYxg8oj2448K-120" value="" style="endArrow=classic;html=1;rounded=0;exitX=0.25;exitY=0;exitDx=0;exitDy=0;" parent="1" source="dyxi0OYYjYxg8oj2448K-109" edge="1">
          <mxGeometry width="50" height="50" relative="1" as="geometry">
            <mxPoint x="340" y="380" as="sourcePoint" />
            <mxPoint x="383" y="520" as="targetPoint" />
            <Array as="points" />
          </mxGeometry>
        </mxCell>
        <mxCell id="dyxi0OYYjYxg8oj2448K-121" value="Ažurirana&lt;br&gt;aplikacija" style="text;html=1;strokeColor=none;fillColor=none;align=center;verticalAlign=middle;whiteSpace=wrap;rounded=0;rotation=0;" parent="1" vertex="1">
          <mxGeometry x="320" y="550" width="60" height="30" as="geometry" />
        </mxCell>
        <mxCell id="dyxi0OYYjYxg8oj2448K-122" value="Naplatni&amp;nbsp;&lt;br&gt;sustav" style="rounded=0;whiteSpace=wrap;html=1;" parent="1" vertex="1">
          <mxGeometry x="598" y="470" width="120" height="60" as="geometry" />
        </mxCell>
        <mxCell id="dyxi0OYYjYxg8oj2448K-125" value="" style="endArrow=classic;html=1;rounded=0;exitX=0.962;exitY=0.662;exitDx=0;exitDy=0;exitPerimeter=0;entryX=0;entryY=0.25;entryDx=0;entryDy=0;" parent="1" source="dyxi0OYYjYxg8oj2448K-107" target="dyxi0OYYjYxg8oj2448K-122" edge="1">
          <mxGeometry width="50" height="50" relative="1" as="geometry">
            <mxPoint x="340" y="370" as="sourcePoint" />
            <mxPoint x="390" y="320" as="targetPoint" />
          </mxGeometry>
        </mxCell>
        <mxCell id="dyxi0OYYjYxg8oj2448K-126" value="Podaci o plaćanju" style="text;html=1;align=center;verticalAlign=middle;resizable=0;points=[];autosize=1;strokeColor=none;fillColor=none;" parent="1" vertex="1">
          <mxGeometry x="473" y="465" width="120" height="30" as="geometry" />
        </mxCell>
        <mxCell id="dyxi0OYYjYxg8oj2448K-127" value="" style="endArrow=classic;html=1;rounded=0;exitX=0;exitY=0.5;exitDx=0;exitDy=0;entryX=0.938;entryY=0.765;entryDx=0;entryDy=0;entryPerimeter=0;" parent="1" source="dyxi0OYYjYxg8oj2448K-122" target="dyxi0OYYjYxg8oj2448K-107" edge="1">
          <mxGeometry width="50" height="50" relative="1" as="geometry">
            <mxPoint x="340" y="370" as="sourcePoint" />
            <mxPoint x="390" y="320" as="targetPoint" />
          </mxGeometry>
        </mxCell>
        <mxCell id="dyxi0OYYjYxg8oj2448K-128" value="Potvrda&lt;br&gt;plaćanja" style="text;html=1;align=center;verticalAlign=middle;resizable=0;points=[];autosize=1;strokeColor=none;fillColor=none;" parent="1" vertex="1">
          <mxGeometry x="528" y="500" width="70" height="40" as="geometry" />
        </mxCell>
      </root>
    </mxGraphModel>
  </diagram>
</mxfile>
